PathFileType	4	(X/Y/Z)	/Users/itak/Documents/Research/Walk-IL/dataset/trc/00168_00008.trc
DataRate	CameraRate	NumFrames	NumMarkers	Units	OrigDataRate	OrigDataStartFrame	OrigNumFrames
100.000000	100.000000	4	53	mm	100.000000	0	709
Frame#	Time	RPSI			LPSI			L3			STRN			T10			C7			CLAV			RBAK			LBAK			LSHO			LUPA			LAEL			LAOL			LWTS			LWPS			LFRA			LIFD			LHPS			LHTS			RSHO			RUPA			RAEL			RAOL			RWTS			RWPS			RFRA			RIFD			RHTS			RHPS			RBHD			LFHD			RFHD			LBHD			LHIP			RHIP			RASI			LASI			LKNE			LTHI			LANK			LTIP			LTOE			LMT1			LMT5			LHEE			RKNE			RTHI			RANK			RTIP			RTOE			RMT1			RMT5			RHEE			
		X1	Y1	Z1	X2	Y2	Z2	X3	Y3	Z3	X4	Y4	Z4	X5	Y5	Z5	X6	Y6	Z6	X7	Y7	Z7	X8	Y8	Z8	X9	Y9	Z9	X10	Y10	Z10	X11	Y11	Z11	X12	Y12	Z12	X13	Y13	Z13	X14	Y14	Z14	X15	Y15	Z15	X16	Y16	Z16	X17	Y17	Z17	X18	Y18	Z18	X19	Y19	Z19	X20	Y20	Z20	X21	Y21	Z21	X22	Y22	Z22	X23	Y23	Z23	X24	Y24	Z24	X25	Y25	Z25	X26	Y26	Z26	X27	Y27	Z27	X28	Y28	Z28	X29	Y29	Z29	X30	Y30	Z30	X31	Y31	Z31	X32	Y32	Z32	X33	Y33	Z33	X34	Y34	Z34	X35	Y35	Z35	X36	Y36	Z36	X37	Y37	Z37	X38	Y38	Z38	X39	Y39	Z39	X40	Y40	Z40	X41	Y41	Z41	X42	Y42	Z42	X43	Y43	Z43	X44	Y44	Z44	X45	Y45	Z45	X46	Y46	Z46	X47	Y47	Z47	X48	Y48	Z48	X49	Y49	Z49	X50	Y50	Z50	X51	Y51	Z51	X52	Y52	Z52	X53	Y53	Z53	

1	0	816.7864379882812	1054.697143554688	168.3507537841797	824.8972778320312	1051.65771484375	44.06350708007812	822.6780395507812	1089.825073242188	108.2305221557617	1079.213134765625	1300.546264648438	109.3825454711914	787.5272216796875	1247.23779296875	98.90556335449219	849.0916137695312	1517.90234375	85.15267181396484	1049.84765625	1413.332885742188	98.21958160400391	780.5387573242188	1343.31982421875	194.1926422119141	846.7003173828125	1490.690795898438	-15.24447345733643	927.7778930664062	1477.348266601562	-90.603759765625	902.5494995117188	1343.422607421875	-163.5868682861328	926.5330200195312	1123.677734375	-176.445068359375	866.8186645507812	1110.769165039062	-111.8336563110352	1036.319091796875	897.6192626953125	-117.5491256713867	964.0975952148438	871.6722412109375	-171.16796875	945.8046875	1012.954162597656	-183.8035736083984	1049.829467773438	712.7569580078125	-84.68150329589844	985.5297241210938	802.5570068359375	-160.861328125	1052.670043945312	819.6968994140625	-132.7405242919922	908.3462524414062	1497.72802734375	270.0556945800781	887.857421875	1431.178100585938	340.0181274414062	884.7695922851562	1141.585205078125	396.2358093261719	875.970458984375	1135.404174804688	300.5399780273438	1030.958129882812	920.9461669921875	366.1669921875	961.4891357421875	900.5604248046875	419.7219848632812	914.1752319335938	1070.079467773438	412.9407653808594	1051.211669921875	733.1060791015625	341.8705444335938	1061.17138671875	828.8920288085938	371.6640930175781	992.4136352539062	818.479248046875	414.3351440429688	898.964111328125	1685.092163085938	157.6944274902344	1066.15185546875	1725.17041015625	24.84123802185059	1066.250854492188	1731.637817382812	154.2986602783203	890.0487060546875	1685.88916015625	20.59050178527832	937.235107421875	988.360595703125	-67.56807708740234	969.3595581054688	1015.120910644531	297.6438293457031	1051.513916015625	1042.017944335938	244.8079528808594	1055.480590820312	1029.639404296875	-14.42465782165527	939.5571899414062	492.5931091308594	-28.05695533752441	950.0072021484375	634.5419921875	-58.32973861694336	835.553955078125	39.90341567993164	-29.50897979736328	890.4015502929688	271.7278747558594	-41.86988067626953	1055.279663085938	36.6402587890625	-18.06928634643555	1008.436767578125	38.10278701782227	33.27603530883789	940.7653198242188	31.73407745361328	-75.94795227050781	789.4938354492188	38.35063552856445	42.98297119140625	965.055419921875	514.8715209960938	277.2872314453125	1018.306213378906	781.101318359375	309.0495300292969	861.7844848632812	37.61115646362305	277.927734375	967.78271484375	396.9647216796875	257.6776123046875	1085.255249023438	39.59469604492188	237.1588745117188	1027.212768554688	37.39717483520508	194.1491241455078	975.4955444335938	34.56577301025391	310.4331359863281	808.2939453125	37.30679321289062	211.0524749755859	
2	0.01	816.831787109375	1054.64599609375	168.351318359375	824.9625244140625	1051.58935546875	44.07078170776367	822.739990234375	1089.78857421875	108.2438888549805	1079.199340820312	1300.541137695312	109.3649291992188	787.527587890625	1247.214111328125	98.91194152832031	849.0562133789062	1517.869750976562	85.15684509277344	1049.816772460938	1413.315063476562	98.20820617675781	780.521484375	1343.274291992188	194.1942443847656	846.6411743164062	1490.60888671875	-15.20949172973633	927.6934814453125	1477.295166015625	-90.59541320800781	902.476806640625	1343.37109375	-163.5741729736328	926.5106201171875	1123.64501953125	-176.4326171875	866.7907104492188	1110.724731445312	-111.7920761108398	1036.3408203125	897.6061401367188	-117.4993438720703	964.1062622070312	871.6235961914062	-171.0912628173828	945.8046875	1012.931823730469	-183.7721252441406	1049.966552734375	712.7645263671875	-84.59741973876953	985.5862426757812	802.5565185546875	-160.8132019042969	1052.688842773438	819.6654663085938	-132.6842956542969	908.3270263671875	1497.702270507812	270.055419921875	887.8336181640625	1431.138549804688	340.0139465332031	884.7931518554688	1141.551391601562	396.2241516113281	875.964111328125	1135.391845703125	300.5438232421875	1031.067138671875	920.9612426757812	366.1039123535156	961.5759887695312	900.538330078125	419.6676940917969	914.22802734375	1070.038208007812	412.9276428222656	1051.381469726562	733.1776123046875	341.887939453125	1061.317993164062	828.889404296875	371.5902709960938	992.5459594726562	818.4781494140625	414.2507629394531	899.0324096679688	1685.12939453125	157.6747131347656	1066.259155273438	1725.071166992188	24.81523323059082	1066.344360351562	1731.547241210938	154.2802886962891	890.1194458007812	1685.919921875	20.59303092956543	937.2606811523438	988.3529663085938	-67.56589508056641	969.4432983398438	1015.106323242188	297.6473999023438	1051.580688476562	1042.014282226562	244.8026123046875	1055.55908203125	1029.640625	-14.4237174987793	939.6303100585938	492.5994873046875	-28.04151725769043	950.0709228515625	634.53857421875	-58.31918716430664	835.5453491210938	39.88245391845703	-29.4928150177002	890.4393920898438	271.7201538085938	-41.86286163330078	1055.281982421875	36.64091873168945	-18.06820678710938	1008.440063476562	38.09171676635742	33.27518081665039	940.7658081054688	31.73521041870117	-75.940673828125	789.4829711914062	38.35244750976562	42.98019790649414	965.1246337890625	514.8569946289062	277.2756958007812	1018.424377441406	781.1609497070312	309.0063171386719	861.7853393554688	37.61392211914062	277.9185485839844	967.8270874023438	396.9696350097656	257.6663208007812	1085.259521484375	39.58053970336914	237.1614990234375	1027.214965820312	37.39965438842773	194.1476440429688	975.4932861328125	34.56164169311523	310.42529296875	808.3075561523438	37.31654357910156	211.0523223876953	
3	0.02	816.90576171875	1054.6142578125	168.3611450195312	825.0496215820312	1051.504638671875	44.08367538452148	822.8224487304688	1089.737548828125	108.2619094848633	1079.1845703125	1300.534545898438	109.3438034057617	787.5315551757812	1247.186157226562	98.91782379150391	849.0150146484375	1517.83154296875	85.16094970703125	1049.780395507812	1413.293579101562	98.19420623779297	780.5025024414062	1343.2138671875	194.1944122314453	846.5763549804688	1490.51416015625	-15.16934013366699	927.5914916992188	1477.22265625	-90.58481597900391	902.39453125	1343.308959960938	-163.5613861083984	926.4871826171875	1123.605346679688	-176.4192962646484	866.7613525390625	1110.674072265625	-111.746826171875	1036.364624023438	897.5883178710938	-117.4368209838867	964.1189575195312	871.5712890625	-171.0077819824219	945.8055419921875	1012.90380859375	-183.7340545654297	1050.114379882812	712.7698364257812	-84.49302673339844	985.6517944335938	802.552734375	-160.7476043701172	1052.709716796875	819.6243896484375	-132.6186828613281	908.3035278320312	1497.671142578125	270.0531616210938	887.8056640625	1431.091918945312	340.0067443847656	884.8189086914062	1141.510131835938	396.2080383300781	875.9517822265625	1135.378051757812	300.5464782714844	1031.193115234375	920.978759765625	366.0227966308594	961.682373046875	900.5115966796875	419.5981140136719	914.287109375	1069.988037109375	412.9073791503906	1051.582763671875	733.2560424804688	341.8877258300781	1061.496337890625	828.89111328125	371.5042724609375	992.7105712890625	818.4759521484375	414.1478271484375	899.1079711914062	1685.168701171875	157.6526794433594	1066.380493164062	1724.959716796875	24.78837966918945	1066.449462890625	1731.447021484375	154.2593078613281	890.1975708007812	1685.954711914062	20.59505081176758	937.2977294921875	988.34033203125	-67.56098175048828	969.5460815429688	1015.088073730469	297.650146484375	1051.66357421875	1042.008911132812	244.7954864501953	1055.653198242188	1029.642333984375	-14.42547416687012	939.718994140625	492.606201171875	-28.02333831787109	950.1464233398438	634.5333251953125	-58.30702972412109	835.5328979492188	39.85934448242188	-29.47496604919434	890.4860229492188	271.7113952636719	-41.85427093505859	1055.285278320312	36.64142227172852	-18.06646537780762	1008.443420410156	38.08113098144531	33.2743034362793	940.7662353515625	31.73631286621094	-75.93193817138672	789.4713134765625	38.35431289672852	42.97919845581055	965.2095947265625	514.8403930664062	277.2596130371094	1018.565734863281	781.232421875	308.9519958496094	861.787353515625	37.61684799194336	277.9075012207031	967.8827514648438	396.9736022949219	257.6545104980469	1085.26513671875	39.56571578979492	237.1624908447266	1027.219116210938	37.40230560302734	194.1465911865234	975.4915771484375	34.55776977539062	310.4164428710938	808.3212280273438	37.3260498046875	211.0494995117188	
4	0.03	817.0069580078125	1054.6044921875	168.3808441162109	825.1555786132812	1051.408935546875	44.10342788696289	822.92333984375	1089.672973632812	108.2843170166016	1079.170532226562	1300.526733398438	109.3206100463867	787.5404663085938	1247.155395507812	98.92241668701172	848.9713134765625	1517.79052734375	85.16410827636719	1049.741821289062	1413.270263671875	98.17855834960938	780.4851684570312	1343.139038085938	194.1931915283203	846.5127563476562	1490.414184570312	-15.12749862670898	927.4793701171875	1477.1328125	-90.57305145263672	902.3106689453125	1343.240478515625	-163.5506896972656	926.4653930664062	1123.560546875	-176.4062347412109	866.734130859375	1110.621215820312	-111.7021636962891	1036.388305664062	897.5654296875	-117.3642730712891	964.1355590820312	871.5206298828125	-170.9257202148438	945.8079223632812	1012.871459960938	-183.6918792724609	1050.257080078125	712.7703857421875	-84.37387084960938	985.7207641601562	802.5445556640625	-160.6660003662109	1052.729736328125	819.5741577148438	-132.5481109619141	908.2774047851562	1497.63671875	270.0483093261719	887.7758178710938	1431.041625976562	339.9960632324219	884.844482421875	1141.463623046875	396.1871948242188	875.9324340820312	1135.363891601562	300.5464477539062	1031.325439453125	920.9965209960938	365.9268493652344	961.8018798828125	900.481689453125	419.5153198242188	914.3470458984375	1069.932006835938	412.8786315917969	1051.801147460938	733.3330078125	341.8587646484375	1061.693481445312	828.8970336914062	371.4104919433594	992.8975219726562	818.471923828125	414.031494140625	899.18310546875	1685.204956054688	157.630859375	1066.50439453125	1724.8486328125	24.76457405090332	1066.5556640625	1731.34765625	154.2383575439453	890.274658203125	1685.990234375	20.59644508361816	937.3485717773438	988.32177734375	-67.55255126953125	969.6640625	1015.067077636719	297.6514282226562	1051.75927734375	1042.001708984375	244.7870483398438	1055.757568359375	1029.644165039062	-14.43069648742676	939.8178100585938	492.6123962402344	-28.00374412536621	950.2288208007812	634.526611328125	-58.29431533813477	835.5170288085938	39.83655166625977	-29.45717620849609	890.5387573242188	271.7026062011719	-41.84463119506836	1055.28955078125	36.64138412475586	-18.06397247314453	1008.446411132812	38.07212448120117	33.27345275878906	940.7667236328125	31.73716354370117	-75.92250061035156	789.4612426757812	38.3560791015625	42.98152160644531	965.3062133789062	514.8235473632812	277.2395324707031	1018.721252441406	781.3092041015625	308.8899536132812	861.791015625	37.61926651000977	277.8959350585938	967.9469604492188	396.9762573242188	257.6432800292969	1085.271850585938	39.55171966552734	237.1608276367188	1027.22509765625	37.40438461303711	194.145751953125	975.4905395507812	34.55454254150391	310.4075927734375	808.3336181640625	37.33350372314453	211.0428619384766	
